Motion_sv01_j
version=1
nRows=8
nColumns=43
inDegrees=yes
endheader
time	pelvis_tilt	pelvis_list	pelvis_rotation	pelvis_tx	pelvis_ty	pelvis_tz	hip_flexion_r	hip_adduction_r	hip_rotation_r	knee_angle_r	ankle_angle_r	subtalar_angle_r	mtp_angle_r	hip_flexion_l	hip_adduction_l	hip_rotation_l	knee_angle_l	ankle_angle_l	subtalar_angle_l	mtp_angle_l	lumbar_extension	lumbar_bending	lumbar_rotation	neck_flexion	neck_lateral_bending	neck_rotation	arm_flex_r	arm_add_r	arm_rot_r	elbow_flex_r	pro_sup_r	wrist_flex_r	wrist_dev_r	hand_finger_flex_r	arm_flex_l	arm_add_l	arm_rot_l	elbow_flex_l	pro_sup_l	wrist_flex_l	wrist_dev_l	hand_finger_flex_l
      4.35000000	      9.98382920	     -6.10889694	    -82.16079288	     -0.05944666	      0.93895324	      0.04727448	     14.76749784	    -12.33592464	     -2.93577614	    -37.79366211	     18.39276627	     -4.94295816	     -4.38364141	    -18.08838171	      3.78092410	    -32.68416996	     -3.45829460	     11.00391727	     19.57000335	     10.54784886	    -37.66151493	     -7.41199131	      7.24552972	     25.63803476	      1.38977336	    -18.62598505	     -1.25667443	    -10.28839771	    -16.51641067	     72.72455583	    144.47902277	     -9.03704816	     -6.22373082	    -26.86140390	     -4.76274556	    -24.36261237	     -6.99142329	     87.01606835	    123.98953435	    -16.85398626	    -22.02912086	     23.54062210
      4.35250000	      9.98229388	     -6.05976929	    -82.10915842	     -0.05982284	      0.93864767	      0.04836589	     14.89506866	    -12.29661700	     -2.95747598	    -38.08391078	     18.45401848	     -5.06647094	     -4.42677705	    -18.11409011	      3.73503032	    -32.75041918	     -3.43623130	     10.99462772	     19.55663196	     10.55353649	    -37.67115568	     -7.34069264	      7.10568889	     25.67051648	      1.42712191	    -18.55771817	     -1.26425024	    -10.25204061	    -16.48545571	     72.93593032	    144.50932787	     -9.09621534	     -6.28762006	    -26.83900081	     -4.54840346	    -24.46716927	     -6.90744067	     87.21203661	    124.10872195	    -16.89836931	    -22.06181927	     23.58345388
      4.35500000	     10.01504337	     -5.97176302	    -82.05404237	     -0.06020063	      0.93830281	      0.04941155	     15.03967155	    -12.30079659	     -3.00331018	    -38.32318016	     18.56787812	     -5.28789228	     -4.48084563	    -18.10410770	      3.72510150	    -32.74951316	     -3.40357047	     11.00087866	     19.60107432	     10.56742704	    -37.67995751	     -7.31146448	      6.98529788	     25.83230031	      1.47711330	    -18.38078340	     -1.32078875	    -10.22094924	    -16.49258925	     73.22343776	    144.54413716	     -9.19644733	     -6.35448041	    -26.81375540	     -4.29849060	    -24.60986715	     -6.76301186	     87.44906495	    124.28373933	    -16.95080230	    -22.09696959	     23.63960974
      4.35750000	     10.11590803	     -5.79086173	    -81.99285231	     -0.06057737	      0.93791379	      0.05029749	     15.25203166	    -12.37621561	     -3.01896409	    -38.46423377	     18.62725844	     -5.66009964	     -4.63495090	    -17.97418420	      3.78449884	    -32.64134984	     -3.42275802	     11.01116658	     19.71710677	     10.60553512	    -37.64242967	     -7.36201880	      6.88154000	     26.12944661	      1.54373068	    -18.12465430	     -1.39352629	    -10.13183444	    -16.62205415	     73.53093143	    144.59092277	     -9.36842420	     -6.38047889	    -26.72520713	     -3.95225033	    -24.74076598	     -6.55529383	     87.67164082	    124.62394273	    -17.11060561	    -22.06082404	     23.75449449
      4.36000000	     10.11459237	     -5.73673645	    -81.94401516	     -0.06095112	      0.93760647	      0.05136697	     15.37677628	    -12.33784288	     -3.03202084	    -38.73219129	     18.69674012	     -5.76823176	     -4.66937935	    -18.00343327	      3.74606118	    -32.69731440	     -3.37852842	     11.00183890	     19.68919980	     10.61412200	    -37.64953570	     -7.28270947	      6.74151150	     26.15597618	      1.56959847	    -18.06456620	     -1.37222694	    -10.09859431	    -16.58626525	     73.73970755	    144.60955573	     -9.42800872	     -6.42808873	    -26.70274573	     -3.72129603	    -24.83033816	     -6.46541457	     87.86283532	    124.70806780	    -17.15076420	    -22.08733834	     23.78891400
      4.36250000	     10.20425700	     -5.55354309	    -81.88405084	     -0.06138109	      0.93716795	      0.05229690	     15.60184293	    -12.39897289	     -3.05364473	    -38.90273020	     18.79584595	     -6.13573330	     -4.80462490	    -17.88995208	      3.80021358	    -32.57734055	     -3.35471511	     11.00021638	     19.75143593	     10.65296746	    -37.60647376	     -7.32742766	      6.65013180	     26.44883305	      1.60331966	    -17.79321369	     -1.46486187	    -10.03464142	    -16.67626344	     74.07605967	    144.64154227	     -9.61241700	     -6.41905479	    -26.63183503	     -3.36823022	    -24.98010853	     -6.21978735	     88.10319015	    124.95406138	    -17.29862822	    -22.05137640	     23.90543117
      4.36500000	     10.20284388	     -5.50197231	    -81.86665190	     -0.06182000	      0.93692504	      0.05325259	     15.69100298	    -12.35667549	     -3.06889409	    -39.05740552	     18.83889137	     -6.18966338	     -4.81694087	    -17.91699776	      3.77494590	    -32.62624102	     -3.30228146	     11.00143688	     19.72453985	     10.65712484	    -37.62423337	     -7.26133866	      6.53540607	     26.43547068	      1.61135999	    -17.75922718	     -1.37378137	    -10.01080885	    -16.64539697	     74.23017486	    144.64944784	     -9.65060293	     -6.44776505	    -26.62830352	     -3.10823105	    -25.00971232	     -6.18282320	     88.28829510	    124.97840822	    -17.32690842	    -22.07883333	     23.91730175
      4.36750000	     10.27211426	     -5.31954705	    -81.78158040	     -0.06217443	      0.93640557	      0.05427548	     15.96110353	    -12.40774544	     -3.12052776	    -39.35137395	     18.95255470	     -6.61780595	     -4.93048327	    -17.81643892	      3.80978900	    -32.50523931	     -3.25925438	     10.98327942	     19.74978909	     10.68989869	    -37.57344023	     -7.25947854	      6.43523260	     26.75549812	      1.62303648	    -17.44152660	     -1.50870401	     -9.95810891	    -16.70994008	     74.62488173	    144.68898612	     -9.86381410	     -6.41514850	    -26.60448333	     -2.77205292	    -25.20803007	     -5.85805252	     88.54461151	    125.16816749	    -17.45208063	    -22.04334523	     24.04376143
